inDegrees=no
num_controls=7
num_derivatives=13
num_iterations=233
num_multipliers=7
num_parameters=0
num_slacks=7
num_states=26
objective=5.973248
objective_accelerations=0.744248
objective_balance=0.024333
objective_effort=0.511464
objective_height=4.598929
objective_ligament=0.094274
solver_duration=1923.183001
status=Solve_Succeeded
success=true
DataType=double
version=3
OpenSimVersion=4.4-2022-07-23-0e9fedc
endheader
time	/jointset/ground_pelvis/pelvis_tilt/value	/jointset/ground_pelvis/pelvis_tx/value	/jointset/ground_pelvis/pelvis_ty/value	/jointset/hip_r/hip_flexion_r/value	/jointset/hip_r/hip_adduction_r/value	/jointset/hip_r/hip_rotation_r/value	/jointset/back/lumbar_extension/value	/jointset/patellofemoral_r/patellar_flexion_r/value	/jointset/knee_r/knee_flexion_r/value	/jointset/knee_r/knee_adduction_r/value	/jointset/knee_r/knee_rotation_r/value	/jointset/ankle_r/ankle_angle_r/value	/jointset/subtalar_r/subtalar_angle_r/value	/jointset/ground_pelvis/pelvis_tilt/speed	/jointset/ground_pelvis/pelvis_tx/speed	/jointset/ground_pelvis/pelvis_ty/speed	/jointset/hip_r/hip_flexion_r/speed	/jointset/hip_r/hip_adduction_r/speed	/jointset/hip_r/hip_rotation_r/speed	/jointset/back/lumbar_extension/speed	/jointset/patellofemoral_r/patellar_flexion_r/speed	/jointset/knee_r/knee_flexion_r/speed	/jointset/knee_r/knee_adduction_r/speed	/jointset/knee_r/knee_rotation_r/speed	/jointset/ankle_r/ankle_angle_r/speed	/jointset/subtalar_r/subtalar_angle_r/speed	/forceset/tau_hip_flexion_r	/forceset/tau_hip_adduction_r	/forceset/tau_hip_rotation_r	/forceset/tau_knee_flexion_r	/forceset/tau_ankle_angle_r	/forceset/tau_subtalar_angle_r	/forceset/tau_lumbar_extension	lambda_cid13_p0	lambda_cid14_p0	lambda_cid14_p1	lambda_cid14_p2	lambda_cid14_p3	lambda_cid14_p4	lambda_cid14_p5	/jointset/ground_pelvis/pelvis_tilt/accel	/jointset/ground_pelvis/pelvis_tx/accel	/jointset/ground_pelvis/pelvis_ty/accel	/jointset/hip_r/hip_flexion_r/accel	/jointset/hip_r/hip_adduction_r/accel	/jointset/hip_r/hip_rotation_r/accel	/jointset/back/lumbar_extension/accel	/jointset/patellofemoral_r/patellar_flexion_r/accel	/jointset/knee_r/knee_flexion_r/accel	/jointset/knee_r/knee_adduction_r/accel	/jointset/knee_r/knee_rotation_r/accel	/jointset/ankle_r/ankle_angle_r/accel	/jointset/subtalar_r/subtalar_angle_r/accel	gamma_cid13_p0	gamma_cid14_p0	gamma_cid14_p1	gamma_cid14_p2	gamma_cid14_p3	gamma_cid14_p4	gamma_cid14_p5
0.5	-0.1779496820581916	0.0127942308392182	0.7836070633198974	0.9989599562374861	-0.2213422733616569	-0.1222416149935405	-0.6591701089112716	1.02779883048214	1.027798830482137	-0.07419464722069929	0.1745329251994329	0.3039244760474079	0.1447940414913054	-0.4647357263743681	-0.2189038320854961	-0.5957358897263694	2.153985585773425	-0.04323023156794594	0.2235898628983791	-0.7301195328909375	2.122461909814183	2.122461909814187	-0.4224597619562124	7.598701745757236e-06	0.535566581920374	0.1494519804380239	-0.2224617276020307	0.004073132987310325	0.01613321340252009	-0.2929229417562698	0.002813772788889776	0.007418524563925298	0.2564540169726619	-5.182491747545293	-40.90705545486036	-3.000318176942086	-0.1738346296984252	-5.492764428070014	-639.3108276413735	66.42725427699129	0.512893961926144	0.7142615754731737	-0.4776832163163559	-1.463641571653952	-0.2009839602639992	-0.3915518332638843	2.048786205708888	-1.500973447820496	-1.500973447820496	0.6461522916461677	-0.04911575888815754	-0.7415779146702727	-0.469468497077993	-7.382367865834078e-08	1.250725186887135e-07	2.196355811374652e-06	5.931337372474208e-07	-2.861231324261627e-07	-1.979168355377916e-07	1.560083192635674e-06
0.51	-0.1825703255785666	0.01064107118613794	0.7776272613607834	1.020423220993568	-0.2217849993266945	-0.1200274062860994	-0.6663684421452017	1.048944961081077	1.048944961081077	-0.07838721786113305	0.1745329133713292	0.3092418769176745	0.1462638740281988	-0.4593160875208153	-0.211712864302187	-0.6000856244173038	2.138375986802594	-0.04530471496266365	0.219288164352572	-0.7094665206881619	2.106472395555534	2.106472395555531	-0.4159834384591941	-8.518978428912494e-06	0.5278218732005566	0.1444718483160039	-0.2299089287242877	0.004646765274426266	0.01635750069037997	-0.2984980008212075	0.001797305070044975	0.007818798657083603	0.2632492138668769	-4.362146670533653	-41.61189134218221	-3.08408418498614	-0.007199733435855394	-5.414605349053022	-645.3924333241882	66.9765225366326	0.5680544099324225	0.7237398072484312	-0.3928239861811623	-1.653303271250327	-0.2089275586075847	-0.4441418311684368	2.0856477086052	-1.69170027965252	-1.691700279653606	0.6593037143960667	0.02275788041268038	-0.8047377253326283	-0.5182534273995202	-5.543122278528475e-08	1.50590454125266e-07	2.173659708011741e-06	7.570092329782207e-07	-2.991588215451719e-07	-1.763950484929108e-07	1.600690346996545e-06
0.52	-0.1871344615978338	0.008560266296388492	0.7716081209766201	1.041721652917651	-0.2222481195315858	-0.1178551471573021	-0.6733578274608957	1.069922444564475	1.069922444564476	-0.08251283899946361	0.1745328575986541	0.3144790666258038	0.1476827116723448	-0.4534342261527587	-0.2044328794193333	-0.6036035747362057	2.121019019373658	-0.04730907953865873	0.2151999471695919	-0.6883299492436534	2.088732486706265	2.088732486706255	-0.4090698615355196	6.946118878601879e-08	0.5195243494929324	0.139253001888563	-0.237356129846545	0.005220397561542546	0.0165817879782441	-0.304073059886145	0.0007808373512003078	0.00821907275024243	0.2700444107610916	-3.615284593088305	-42.31205522613668	-3.158835308975675	0.1486368160777455	-5.369991794082464	-651.4268403071761	67.55011187947092	0.605338464826917	0.7320649953820824	-0.3113263419098363	-1.81311526327482	-0.186960196519484	-0.3488555606985076	2.145498054055488	-1.851052365944687	-1.851052365944686	0.7336029769774087	-0.04417453492965094	-0.8521409122316804	-0.5172113581621756	-4.319112473167281e-08	1.622465495648714e-07	2.091253990876239e-06	8.030158249139112e-07	-3.004215322832475e-07	-1.585795218298963e-07	1.595370185397149e-06
0.53	-0.1916376053907654	0.006552629152773953	0.7655579557400315	1.062838090532236	-0.2227308115238759	-0.1157227138824059	-0.6801335370655691	1.090714050270172	1.090714050270173	-0.0865674686020209	0.174532841292373	0.3196306906176611	0.1490483996962876	-0.4471224298729724	-0.197086195864095	-0.6062889960147684	2.101991398999589	-0.04921150901151727	0.2113161231574983	-0.6667518727799467	2.069316392805835	2.069316392805837	-0.4018041756188765	-2.706259484132899e-06	0.5107233551128029	0.1338587566603942	-0.2445741943817301	0.005660235217709175	0.01674217313667546	-0.3098337985206078	-0.0001639305880114148	0.008587546740631873	0.2765930440866459	-2.941123638174597	-42.99366364555587	-3.240473785378037	0.3013725261260758	-5.276065369539976	-657.4526695409262	68.13614638294031	0.654939639469824	0.7371628345588794	-0.2261083801887288	-1.989125886585432	-0.1890040747260078	-0.4038139654525848	2.17297727919208	-2.027719793814416	-2.027719793812585	0.7310928556939885	0.02199633664859511	-0.9056962912277344	-0.5539896425534225	-3.117412939117292e-08	1.732963197568444e-07	2.012469425361422e-06	8.478392414991983e-07	-3.010796505836512e-07	-1.431125967064535e-07	1.593783304397713e-06
0.54	-0.1960754633349164	0.004618697404504626	0.7594851446187854	1.083755943850659	-0.2232319517613059	-0.1136282524764285	-0.6866916629382727	1.111303328658522	1.111303328658522	-0.09054783305407453	0.1745328623143186	0.3246919811476522	0.1503594535604669	-0.440377056396572	-0.1896918003502908	-0.6081327516677022	2.081302160141021	-0.05099872856665408	0.207605573385893	-0.6448132028496867	2.048267023236514	2.048267023236528	-0.3942168314347842	7.535111230978599e-06	0.5014576571197076	0.1283261699358582	-0.2517922589169159	0.006100072873874573	0.01690255829510957	-0.3155945371550704	-0.001108698527223412	0.008956020731019186	0.2831416774121994	-2.338621818045931	-43.67212110925905	-3.313654566218845	0.443731071027803	-5.21480222896072	-663.456525841034	68.74476431685123	0.6920539041497353	0.7416073870952508	-0.1429932167840703	-2.145438960174624	-0.1639182129751355	-0.3142007126008391	2.217616747366153	-2.177707499722915	-2.177707499722915	0.7979346304672411	-0.04157111665205598	-0.9450816348248073	-0.5448796574355848	-1.940397109496724e-08	1.836752620152667e-07	1.937691240363107e-06	8.913536130159541e-07	-3.010688581019497e-07	-1.302441243501963e-07	1.596326861508872e-06
0.55	-0.2004438342759481	0.002758867057677147	0.7533980941400727	1.104458872291469	-0.2237503040379696	-0.1115700306220051	-0.6930287072296405	1.131674165829034	1.131674165829034	-0.09445094502639459	0.1745329001971556	0.3296584200375517	0.1516146611993727	-0.4332313057380548	-0.1822733454044141	-0.6091361953096268	2.059020255654624	-0.05264998721129323	0.204064785125898	-0.6225542052588097	2.025643797773124	2.025643797773139	-0.3863621708991287	3.366135985370797e-07	0.4917635154217123	0.1227000278692926	-0.2587762432807476	0.006511817056473717	0.0169860361153056	-0.3214183126877374	-0.002088621891096292	0.009258207857982335	0.2894242686787374	-1.807092846186044	-44.36597959367066	-3.418361780916804	0.5911613307983972	-5.060106975420033	-669.3843387923936	69.2912250120286	0.7357358393165855	0.7420428773501413	-0.05787226810635231	-2.309029176474907	-0.1622655344771941	-0.3701759783705907	2.236258789711278	-2.343119436809526	-2.343119436809319	0.7859677619823895	0.02000056349133041	-0.9916164446098917	-0.5733762372685605	-7.991603653535219e-09	1.932406753358754e-07	1.864802774140097e-06	9.314257109784227e-07	-3.003519950001696e-07	-1.191100797974924e-07	1.600690341449165e-06
0.5600000000000001	-0.2047387676718718	0.0009732369261116823	0.7473052387588988	1.124931089090695	-0.2242844760699335	-0.1095464482693165	-0.6991419180401471	1.151811072871481	1.15181107287148	-0.09827416319398448	0.1745329250509748	0.3345259103090068	0.1528132284664125	-0.4256895473749822	-0.174851757297888	-0.6092937321599399	2.035159831824122	-0.05416267962668735	0.2006776730390323	-0.6000465066774207	2.001480997623238	2.001480997623255	-0.3782380704887656	4.929308372636964e-06	0.4816679334307973	0.1169980955626666	-0.2657602276445796	0.006923561239071225	0.01706951393550362	-0.3272420882204041	-0.003068545254969525	0.009560394984942665	0.295706859945275	-1.346051533595147	-45.05805884457635	-3.515420420332088	0.7289933640288335	-4.936865719795738	-675.3115379519098	69.85750930594959	0.7712554450608357	0.7422340192251385	0.02618814153822581	-2.46114282899527	-0.1362049671261107	-0.283465477974964	2.267356945468536	-2.48562243702181	-2.485622437021822	0.8518226054087784	-0.03921287817079375	-1.025369693408725	-0.5600377054476434	2.99141476216841e-09	2.018298539311076e-07	1.794181970447452e-06	9.673670806757466e-07	-2.987878471542952e-07	-1.100573486090523e-07	1.607237728784417e-06
0.5700000000000001	-0.2089564329831007	-0.000738233682735054	0.7412150215320367	1.145157045088035	-0.2248329865967119	-0.1075559508577434	-0.7050289162870361	1.171698839585551	1.171698839585552	-0.1020150113822769	0.1745328414687611	0.339290564899407	0.153954598820005	-0.4177840951045361	-0.1674480080649124	-0.6086087133147385	2.009779634924862	-0.0555123663845725	0.1974467922800179	-0.5773295958828982	1.975829346593097	1.975829346593103	-0.3698965997667353	-2.813667787321146e-05	0.4712073731488273	0.1112746521946083	-0.2724699423270999	0.007298640042965739	0.01707310761448489	-0.3330918751771533	-0.004071834298952264	0.009811677203679349	0.3016876294266035	-0.9552041288282116	-45.7561042793884	-3.634925586215739	0.8695955515359791	-4.728180399412977	-681.0992887554701	70.36971789970993	0.8091315232936461	0.738539255704141	0.1107877533489169	-2.614187758482668	-0.1300941577041962	-0.3391858999825377	2.277390169069641	-2.641388066477401	-2.641388066478906	0.8307506583077094	0.01393882396156761	-1.0647783393554	-0.5783054552831789	1.337160753931286e-08	2.090467556145597e-07	1.722097026752288e-06	9.970126045909649e-07	-2.959846456563326e-07	-1.020310448370457e-07	1.610946370810797e-06
